# Blender 5.2.2 LTS
# www.blender.org
mtllib room.mtl
o room
v 1.000000 0.000000 1.000000
v 1.000000 0.000000 -1.000000
v 1.000000 2.000000 1.000000
v 1.000000 2.000000 -1.000000
v -1.000000 0.000000 1.000000
v 1.000000 0.000000 1.000000
v -1.000000 0.000000 -1.000000
v 1.000000 0.000000 -1.000000
v -1.000000 2.000000 1.000000
v 1.000000 2.000000 1.000000
v -1.000000 2.000000 -1.000000
v 1.000000 2.000000 -1.000000
v -0.501079 -0.000000 0.524897
v -0.501079 0.542306 0.524897
v -0.620842 -0.000000 -0.004020
v -0.620842 0.542306 -0.004020
v 0.027838 -0.000000 0.405133
v 0.027838 0.542306 0.405133
v -0.091925 -0.000000 -0.123784
v -0.091925 0.542306 -0.123784
v -0.061772 0.000000 -0.362413
v -0.061772 1.242485 -0.362413
v 0.118611 0.000000 -0.953563
v 0.118611 1.242485 -0.953563
v 0.529378 0.000000 -0.182030
v 0.529378 1.242485 -0.182030
v 0.709761 0.000000 -0.773180
v 0.709761 1.242485 -0.773180
v -1.000000 0.000000 1.000000
v -1.000000 0.000000 -1.000000
v -1.000000 2.000000 1.000000
v -1.000000 2.000000 -1.000000
v -0.262093 2.000000 0.262093
v 0.262093 2.000000 -0.262093
v -0.262093 2.000000 -0.262093
v 0.262093 2.000000 0.262093
vn -1.0000 -0.0000 -0.0000
vn -0.0000 1.0000 -0.0000
vn -0.0000 -0.0000 1.0000
vn -0.0000 -1.0000 -0.0000
vn -0.9753 -0.0000 0.2208
vn -0.2208 -0.0000 -0.9753
vn 0.9753 -0.0000 -0.2208
vn 0.2208 -0.0000 0.9753
vn -0.9565 -0.0000 -0.2919
vn 0.2919 -0.0000 -0.9565
vn 0.9565 -0.0000 0.2919
vn -0.2919 -0.0000 0.9565
vn 1.0000 -0.0000 -0.0000
vt 1.000000 1.000000
vt 1.000000 0.000000
vt 0.000000 0.000000
vt 0.000000 1.000000
vt 0.631047 0.631047
vt 0.631047 0.368953
vt 0.368953 0.368953
vt 0.368953 0.631047
vt 0.375000 0.000000
vt 0.625000 0.000000
vt 0.625000 0.250000
vt 0.375000 0.250000
vt 0.625000 0.500000
vt 0.375000 0.500000
vt 0.625000 0.750000
vt 0.375000 0.750000
vt 0.625000 1.000000
vt 0.375000 1.000000
vt 0.875000 0.500000
vt 0.875000 0.750000
s 0
usemtl Green
f 2/1/1 1/2/1 3/2/1 4/1/1
usemtl White
f 5/3/2 6/2/2 8/1/2 7/4/2
f 7/4/3 8/1/3 12/1/3 11/4/3
f 13/9/5 14/10/5 16/11/5 15/12/5
f 15/12/6 16/11/6 20/13/6 19/14/6
f 19/14/7 20/13/7 18/15/7 17/16/7
f 17/16/8 18/15/8 14/17/8 13/18/8
f 20/13/2 16/19/2 14/20/2 18/15/2
f 21/9/9 22/10/9 24/11/9 23/12/9
f 23/12/10 24/11/10 28/13/10 27/14/10
f 27/14/11 28/13/11 26/15/11 25/16/11
f 25/16/12 26/15/12 22/17/12 21/18/12
f 28/13/2 24/19/2 22/20/2 26/15/2
f 34/5/4 35/8/4 11/4/4 12/1/4
f 35/8/4 33/7/4 9/3/4 11/4/4
f 36/6/4 34/5/4 12/1/4 10/2/4
f 33/7/4 36/6/4 10/2/4 9/3/4
usemtl Red
f 29/3/13 30/4/13 32/4/13 31/3/13
usemtl Light
f 34/5/4 36/6/4 33/7/4 35/8/4
